<svg xmlns="http://www.w3.org/2000/svg" width="148" height="190" viewBox="0 0 148 190">
    <g fill="#FEFEFE" fill-rule="evenodd" opacity=".4">
        <path d="M74 137.35c-34.97 0-63.32-28.356-63.32-63.334S39.03 10.683 74 10.683s63.32 28.355 63.32 63.333c0 34.978-28.35 63.333-63.32 63.333M74 0C33.13 0 0 33.138 0 74.016c0 40.878 33.13 74.016 74 74.016s74-33.138 74-74.016C148 33.138 114.87 0 74 0"/>
        <path d="M43.866 30.14L74 45.403l30.134-15.261v59.136h-15.64V53.032L74 59.9l-14.495-6.868v36.245H43.866zM1.239 167.49l11.349 5.71 11.349-5.71v22.128h-5.89v-13.562l-5.46 2.57-5.459-2.57v13.562h-5.89zM54.165 167.872V190h15.893v-5.342H59.505v-16.786zM85.952 184.659a5.722 5.722 0 1 1 .001-11.445 5.722 5.722 0 0 1-.001 11.445m0-16.788c-6.11 0-11.062 4.954-11.062 11.065 0 6.11 4.953 11.064 11.062 11.064 6.11 0 11.062-4.953 11.062-11.064S92.06 167.87 85.952 167.87M39.416 184.659a5.722 5.722 0 1 1 .001-11.445 5.722 5.722 0 0 1-.001 11.445m0-16.788c-6.11 0-11.062 4.954-11.062 11.065 0 6.11 4.952 11.064 11.062 11.064 6.11 0 11.062-4.953 11.062-11.064s-4.953-11.065-11.062-11.065M135.158 184.659a5.722 5.722 0 1 1 .001-11.445 5.722 5.722 0 0 1-.001 11.445m0-16.788c-6.11 0-11.062 4.954-11.062 11.065 0 6.11 4.953 11.064 11.062 11.064 6.11 0 11.062-4.953 11.062-11.064s-4.952-11.065-11.062-11.065M119.59 186.058l-3.985-3.561v-.005a5.706 5.706 0 0 1-4.478 2.167 5.722 5.722 0 0 1 0-11.446c1.815 0 3.43.848 4.478 2.166v-.004l4.14-3.373a11.039 11.039 0 0 0-8.618-4.13c-6.109 0-11.062 4.953-11.062 11.064 0 6.11 4.953 11.064 11.062 11.064 3.397 0 6.434-1.533 8.463-3.942"/>
        <path d="M74 103.775l44.247-14.498v14.498L74 118.273l-44.247-14.498V89.277z"/>
    </g>
</svg>
