<svg xmlns="http://www.w3.org/2000/svg" xmlns:xlink="http://www.w3.org/1999/xlink" width="331" height="261" viewBox="0 0 331 261">
    <defs>
        <path id="a" d="M0 .275h48.88v32.523H0z"/>
        <path id="c" d="M0 49h331V0H0z"/>
    </defs>
    <g fill="none" fill-rule="evenodd" opacity=".4">
        <g fill="#FFF">
            <text font-family="Avenir-Medium, Avenir" font-size="8.96" font-weight="400" letter-spacing="-.125" transform="translate(48 61)">
                <tspan x="19.144" y="149.8">0</tspan>
            </text>
            <text font-family="Avenir-Medium, Avenir" font-size="8.96" font-weight="400" letter-spacing="-.125" transform="translate(48 61)">
                <tspan x="14.287" y="114.6">20</tspan>
            </text>
            <text font-family="Avenir-Medium, Avenir" font-size="8.96" font-weight="400" letter-spacing="-.125" transform="translate(48 61)">
                <tspan x="14.287" y="79.4">40</tspan>
            </text>
            <text font-family="Avenir-Medium, Avenir" font-size="8.96" font-weight="400" letter-spacing="-.125" transform="translate(48 61)">
                <tspan x="14.287" y="44.2">60</tspan>
            </text>
            <text font-family="Avenir-Medium, Avenir" font-size="8.96" font-weight="400" letter-spacing="-.125" transform="translate(48 61)">
                <tspan x="14.287" y="9">80</tspan>
            </text>
            <text font-family="Avenir-Medium, Avenir" font-size="8.96" font-weight="400" letter-spacing="-.125" transform="rotate(-45 288.905 155.67)">
                <tspan x="169.272" y="174.112">Network G</tspan>
            </text>
            <text font-family="Avenir-Medium, Avenir" font-size="8.96" font-weight="400" letter-spacing="-.125" transform="rotate(-45 126.505 155.67)">
                <tspan x="6.872" y="174.112">Network A</tspan>
            </text>
            <text font-family="Avenir-Medium, Avenir" font-size="8.96" font-weight="400" letter-spacing="-.125" transform="rotate(-45 153.365 155.67)">
                <tspan x="34.232" y="174.112">Network B</tspan>
            </text>
            <text font-family="Avenir-Medium, Avenir" font-size="8.96" font-weight="400" letter-spacing="-.125" transform="rotate(-45 316.425 155.67)">
                <tspan x="196.792" y="174.112">Network H</tspan>
            </text>
            <text font-family="Avenir-Medium, Avenir" font-size="8.96" font-weight="400" letter-spacing="-.125" transform="rotate(-45 181.385 155.67)">
                <tspan x="61.752" y="174.112">Network C</tspan>
            </text>
            <text font-family="Avenir-Medium, Avenir" font-size="8.96" font-weight="400" letter-spacing="-.125" transform="rotate(-45 208.905 155.67)">
                <tspan x="89.272" y="174.112">Network D</tspan>
            </text>
            <text font-family="Avenir-Medium, Avenir" font-size="8.96" font-weight="400" letter-spacing="-.125" transform="rotate(-45 234.645 155.67)">
                <tspan x="115.512" y="174.112">Network E</tspan>
            </text>
            <text font-family="Avenir-Medium, Avenir" font-size="8.96" font-weight="400" letter-spacing="-.125" transform="rotate(-45 261.525 155.67)">
                <tspan x="142.392" y="174.112">Network F</tspan>
            </text>
            <path d="M80.8 66.12h23.04v153.6H80.8zM161.28 149.96h23.04v69.76h-23.04zM107.52 117.32h23.04v102.4h-23.04zM188.16 174.92h23.04v44.8h-23.04zM134.4 142.92h23.04v76.8H134.4zM215.04 181.32h23.04v38.4h-23.04zM241.92 201.8h23.04v17.92h-23.04zM268.8 210.12h23.04v9.6H268.8z"/>
        </g>
        <g>
            <mask id="b" fill="#fff">
                <use xlink:href="#a"/>
            </mask>
            <path fill="#FFF" d="M12.675 32.798l5.466-4.231-8.393-10.271 11.44-8.987s3.242-2.163 7.426-2.163c0 0 5.382-.238 9.518 3.97 4.137 4.208 4.68 9.914 2.903 14.015l4.753 5.813s5.551-7.81 1.778-17.724C43.793 3.306 34.214.275 28.989.275c-5.224 0-10.013 1.997-12.3 3.78L0 17.179l12.675 15.62z" mask="url(#b)"/>
            <path fill="#FFF" d="M25.402 39.317l-4.017-4.893L16 38.778 24.401 49 40 36.366 35.658 31zM69.707 35.454h5.981c3.888 0 7.605-2.353 7.605-8.992 0-6.05-2.137-9.916-8.801-9.916h-4.785v18.908zM63 11h13.158C84.062 11 90 15.874 90 25.832 90 34.53 85.471 41 76.158 41H63V11zM104.479 36.484c4.17 0 5.416-3.502 5.416-6.963 0-3.503-1.246-7.005-5.416-7.005-4.128 0-5.374 3.502-5.374 7.005 0 3.46 1.246 6.963 5.374 6.963m0-18.484C111.486 18 116 22.558 116 29.521 116 36.442 111.486 41 104.479 41 97.514 41 93 36.442 93 29.521 93 22.558 97.514 18 104.479 18M139 40.42h-5.567v-2.983h-.124C131.825 39.84 129.27 41 126.794 41c-6.227 0-7.794-3.522-7.794-8.825V19h5.856v12.098c0 3.522 1.03 5.262 3.752 5.262 3.175 0 4.536-1.782 4.536-6.132V19H139v21.42zM154.894 23.349c-3.546 0-5.109 3.364-5.109 7.069 0 3.661 1.563 7.026 5.11 7.026 3.546 0 5.109-3.365 5.109-7.026 0-3.705-1.563-7.07-5.11-7.07zM144 11h5.996v11.071h.085c1.478-2.256 4.18-3.279 6.883-3.279 4.349 0 9.036 3.535 9.036 11.583 0 8.09-4.687 11.625-9.036 11.625-3.21 0-5.87-.98-7.179-3.407h-.084v2.81H144V11z"/>
            <mask id="d" fill="#fff">
                <use xlink:href="#c"/>
            </mask>
            <path fill="#FFF" d="M170 41h6V11h-6zM194.91 27.158c-.555-3.039-1.877-4.643-4.82-4.643-3.839 0-4.948 2.955-5.033 4.643h9.853zm-9.853 3.798c.17 3.798 2.047 5.529 5.417 5.529 2.43 0 4.393-1.478 4.777-2.828h5.331C198.876 38.805 195.251 41 190.26 41 183.308 41 179 36.273 179 29.521 179 22.98 183.564 18 190.26 18c7.507 0 11.133 6.246 10.706 12.956h-15.91zM225.347 20.651c-.42-2.942-3.284-5.18-6.568-5.18-5.937 0-8.169 4.973-8.169 10.153 0 4.932 2.232 9.905 8.169 9.905 4.042 0 6.316-2.735 6.82-6.63H232C231.326 36.275 226.147 41 218.779 41 209.474 41 204 34.162 204 25.624 204 16.838 209.474 10 218.779 10c6.61 0 12.168 3.813 12.968 10.651h-6.4zM236 11h5.856v11.303h.123c1.485-2.438 4.042-3.614 6.227-3.614 6.227 0 7.794 3.571 7.794 8.95V41h-5.856V28.731c0-3.571-1.03-5.336-3.752-5.336-3.175 0-4.536 1.807-4.536 6.218V41H236V11zM275.91 27.158c-.555-3.039-1.877-4.643-4.82-4.643-3.839 0-4.948 2.955-5.033 4.643h9.853zm-9.853 3.798c.17 3.798 2.047 5.529 5.417 5.529 2.431 0 4.393-1.478 4.777-2.828h5.331C279.876 38.805 276.251 41 271.26 41 264.308 41 260 36.273 260 29.521 260 22.98 264.564 18 271.26 18c7.507 0 11.133 6.246 10.706 12.956h-15.91zM299.153 26.271c-.37-2.447-1.894-3.755-4.323-3.755-3.748 0-4.983 3.882-4.983 7.09 0 3.122 1.194 6.878 4.86 6.878 2.716 0 4.281-1.772 4.652-4.43H305c-.741 5.78-4.653 8.946-10.253 8.946C288.324 41 284 36.358 284 29.817 284 23.022 287.953 18 294.87 18c5.024 0 9.636 2.701 10.006 8.271h-5.723zM309 11h6.114v16.092l7.706-7.815h7.233l-8.395 7.984L331 41h-7.405l-6.114-9.706-2.367 2.227V41H309z" mask="url(#d)"/>
        </g>
    </g>
</svg>
