<svg xmlns="http://www.w3.org/2000/svg" width="112" height="112" viewBox="0 0 112 112">
    <g fill="none" fill-rule="evenodd">
        <g transform="translate(21.885 46.569)">
            <ellipse cx="9.937" cy="6.613" fill="#5177BB" rx="6.075" ry="6.613"/>
            <path fill="#5177BB" d="M4.4 33.691C1.465 33.297 0 31.956 0 29.667V18.238c1.349-2.377 2.992-3.566 4.929-3.566h10.97c1.927.433 3.47 1.622 4.63 3.566v11.72c-.574 2.525-1.943 3.795-4.106 3.812v8.593H4.4v-8.672z"/>
            <path fill="#FAFAFA" d="M9.655 17.224h1.263v1.252H9.655zM9.655 20.414h1.263v1.252H9.655zM9.655 23.603h1.263v1.252H9.655z"/>
        </g>
        <g fill="#5177BB" transform="translate(67.586 46.569)">
            <ellipse cx="9.791" cy="6.573" rx="6.001" ry="6.573"/>
            <path d="M4.4 33.943C1.465 33.551 0 32.217 0 29.94V18.572c1.349-2.365 2.992-3.547 4.929-3.547h10.97c1.927.43 3.47 1.612 4.63 3.547V30.23c-.574 2.511-1.943 3.775-4.106 3.792v8.548H4.4v-8.627z"/>
        </g>
        <path fill="#FAFAFA" d="M77.061 61.594h1.263v7.825h-1.263zM77.061 70.671h1.263v1.252h-1.263z"/>
        <circle cx="56" cy="56" r="53.2" stroke="#5177BB" stroke-width="5.6"/>
        <g>
            <g fill="#5177BB" transform="translate(45.057 13.397)">
                <ellipse cx="9.977" cy="6.698" rx="6.115" ry="6.698"/>
                <path d="M4.414 33.513C1.47 33.123 0 31.793 0 29.527V18.205c1.353-2.355 3.002-3.533 4.945-3.533h11.006c1.935.429 3.484 1.606 4.647 3.533v11.61c-.577 2.5-1.95 3.76-4.12 3.776v8.512H4.414v-8.59z"/>
            </g>
            <path fill="#FAFAFA" d="M54.532 34.044h1.263v4.382h-1.263z"/>
            <path fill="#FAFAFA" d="M58.468 27.366l1.094.631-3.913 6.777-1.093-.631z"/>
            <path fill="#FAFAFA" d="M51.86 27.366l-1.094.631 3.913 6.777 1.093-.631z"/>
        </g>
    </g>
</svg>
