<?xml version="1.0" encoding="utf-8"?>
<!-- Generator: Adobe Illustrator 24.1.0, SVG Export Plug-In . SVG Version: 6.00 Build 0)  -->
<svg version="1.1" id="Layer_1" xmlns="http://www.w3.org/2000/svg" xmlns:xlink="http://www.w3.org/1999/xlink" x="0px" y="0px"
	 viewBox="0 0 112 112" style="enable-background:new 0 0 112 112;" xml:space="preserve">
<style type="text/css">
	.st0{fill-rule:evenodd;clip-rule:evenodd;fill:#2C7CF5;}
	.st1{fill-rule:evenodd;clip-rule:evenodd;fill:#FAFAFA;}
	.st2{fill:none;stroke:#2C7CF5;stroke-width:0.8;stroke-linecap:square;stroke-dasharray:3.007;}
	.st3{fill:none;stroke:#2C7CF5;stroke-width:5.6;}
</style>
<g>
	<g transform="translate(50.4 43.2)">
		<ellipse class="st0" cx="5.8" cy="4" rx="3.5" ry="4"/>
		<path class="st0" d="M2.6,20.2C0.9,20,0,19.2,0,17.8V11c0.8-1.4,1.7-2.1,2.9-2.1h6.4c1.1,0.3,2,1,2.7,2.1v7
			c-0.3,1.5-1.1,2.3-2.4,2.3v5.1h-7C2.6,25.4,2.6,20.2,2.6,20.2z"/>
		<path class="st1" d="M5.6,10.3h1v1h-1V10.3z M5.6,12.2h1v1h-1V12.2z M5.6,14.1h1v1h-1V14.1z"/>
	</g>
	<g transform="translate(32 43.2)">
		<ellipse class="st0" cx="5.8" cy="4" rx="3.5" ry="4"/>
		<path class="st0" d="M2.6,20.2C0.9,20,0,19.2,0,17.8V11c0.8-1.4,1.7-2.1,2.9-2.1h6.4c1.1,0.3,2,1,2.7,2.1v7
			c-0.3,1.5-1.1,2.3-2.4,2.3v5.1h-7C2.6,25.4,2.6,20.2,2.6,20.2z"/>
		<path class="st1" d="M5.6,10.3h1v1h-1V10.3z M5.6,12.2h1v1h-1V12.2z M5.6,14.1h1v1h-1V14.1z"/>
	</g>
	<g transform="translate(68.8 43.2)">
		<ellipse class="st0" cx="5.8" cy="4" rx="3.5" ry="4"/>
		<path class="st0" d="M2.6,20.2C0.9,20,0,19.2,0,17.8V11c0.8-1.4,1.7-2.1,2.9-2.1h6.4c1.1,0.3,2,1,2.7,2.1v7
			c-0.3,1.5-1.1,2.3-2.4,2.3v5.1h-7C2.6,25.4,2.6,20.2,2.6,20.2z"/>
		<path class="st1" d="M5.6,10.3h1v1h-1V10.3z M5.6,12.2h1v1h-1V12.2z M5.6,14.1h1v1h-1V14.1z"/>
	</g>
	<g transform="translate(50.4 73.6)">
		<ellipse class="st0" cx="5.7" cy="3.9" rx="3.5" ry="3.9"/>
		<path class="st0" d="M2.6,20.3c-1.7-0.2-2.6-1-2.6-2.4v-6.8C0.8,9.7,1.7,9,2.9,9h6.4c1.1,0.3,2,1,2.7,2.1v7
			c-0.3,1.5-1.1,2.3-2.4,2.3v5.1h-7C2.6,25.5,2.6,20.3,2.6,20.3z"/>
	</g>
	<path class="st1" d="M55.9,82.6h1v4.7h-1V82.6z M55.9,88h1v1h-1V88z"/>
	<g transform="translate(32 73.6)">
		<ellipse class="st0" cx="5.7" cy="3.9" rx="3.5" ry="3.9"/>
		<path class="st0" d="M2.6,20.3c-1.7-0.2-2.6-1-2.6-2.4v-6.8C0.8,9.7,1.7,9,2.9,9h6.4c1.1,0.3,2,1,2.7,2.1v7
			c-0.3,1.5-1.1,2.3-2.4,2.3v5.1h-7C2.6,25.5,2.6,20.3,2.6,20.3z"/>
	</g>
	<path class="st1" d="M37.5,82.6h1v4.7h-1V82.6z M37.5,88h1v1h-1V88z"/>
	<g transform="translate(68.8 73.6)">
		<ellipse class="st0" cx="5.7" cy="3.9" rx="3.5" ry="3.9"/>
		<path class="st0" d="M2.6,20.3c-1.7-0.2-2.6-1-2.6-2.4v-6.8C0.8,9.7,1.7,9,2.9,9h6.4c1.1,0.3,2,1,2.7,2.1v7
			c-0.3,1.5-1.1,2.3-2.4,2.3v5.1h-7C2.6,25.5,2.6,20.3,2.6,20.3z"/>
	</g>
	<path class="st1" d="M74.3,82.6h1v4.7h-1V82.6z M74.3,88h1v1h-1V88z"/>
	<g>
		<g transform="translate(50.4 12.8)">
			<ellipse class="st0" cx="5.8" cy="4.1" rx="3.6" ry="4.1"/>
			<path class="st0" d="M2.6,20.4C0.9,20.1,0,19.3,0,18v-6.9C0.8,9.7,1.7,9,2.9,9h6.4c1.1,0.3,2,1,2.7,2.1v7.1
				c-0.3,1.5-1.1,2.3-2.4,2.3v5.2h-7C2.6,25.7,2.6,20.4,2.6,20.4z"/>
		</g>
		<path class="st1" d="M55.9,25.4h1V28h-1V25.4z"/>
		<path class="st1" d="M58.3,21.3l0.9,0.5l-2.4,4.1l-0.9-0.5L58.3,21.3z"/>
		<path class="st1" d="M54.3,21.3l-0.9,0.5l2.4,4.1l0.9-0.5L54.3,21.3z"/>
	</g>
	<g>
		<g transform="translate(32 12.8)">
			<ellipse class="st0" cx="5.8" cy="4.1" rx="3.6" ry="4.1"/>
			<path class="st0" d="M2.6,20.4C0.9,20.1,0,19.3,0,18v-6.9C0.8,9.7,1.7,9,2.9,9h6.4c1.1,0.3,2,1,2.7,2.1v7.1
				c-0.3,1.5-1.1,2.3-2.4,2.3v5.2h-7C2.6,25.7,2.6,20.4,2.6,20.4z"/>
		</g>
		<path class="st1" d="M37.5,25.4h1V28h-1V25.4z"/>
		<path class="st1" d="M39.9,21.3l0.9,0.5l-2.4,4.1l-0.9-0.5L39.9,21.3z"/>
		<path class="st1" d="M35.9,21.3L35,21.8l2.4,4.1l0.9-0.5L35.9,21.3z"/>
	</g>
	<path class="st2" d="M24,40.8h64 M24,71.2h64"/>
	<g>
		<g transform="translate(68.8 12.8)">
			<ellipse class="st0" cx="5.8" cy="4.1" rx="3.6" ry="4.1"/>
			<path class="st0" d="M2.6,20.4C0.9,20.1,0,19.3,0,18v-6.9C0.8,9.7,1.7,9,2.9,9h6.4c1.1,0.3,2,1,2.7,2.1v7.1
				c-0.3,1.5-1.1,2.3-2.4,2.3v5.2h-7C2.6,25.7,2.6,20.4,2.6,20.4z"/>
		</g>
		<path class="st1" d="M74.3,25.4h1V28h-1V25.4z"/>
		<path class="st1" d="M76.7,21.3l0.9,0.5l-2.4,4.1l-0.9-0.5L76.7,21.3z"/>
		<path class="st1" d="M72.7,21.3l-0.9,0.5l2.4,4.1l0.9-0.5L72.7,21.3z"/>
	</g>
	<circle class="st3" cx="56" cy="56" r="53.2"/>
</g>
</svg>
