<svg xmlns="http://www.w3.org/2000/svg" width="215" height="216" viewBox="0 0 215 216">
    <g fill="none" fill-rule="evenodd" opacity=".4">
        <g fill="#FFF" transform="translate(42.011 89.614)">
            <ellipse cx="19.075" cy="12.725" rx="11.662" ry="12.725"/>
            <path d="M8.445 64.833C2.815 64.074 0 61.493 0 57.09V35.097c2.589-4.575 5.743-6.863 9.462-6.863h21.057c3.701.833 6.664 3.12 8.89 6.863V57.65c-1.103 4.857-3.73 7.302-7.882 7.335V81.52H8.445V64.833zm10.09-19.412v2.409h2.425v-2.41h-2.426zm0-6.138v2.41h2.425v-2.41h-2.426zm0-6.138v2.41h2.425v-2.41h-2.426z"/>
        </g>
        <g fill="#FFF" transform="translate(129.741 89.614)">
            <ellipse cx="18.795" cy="12.649" rx="11.519" ry="12.649"/>
            <path d="M18.189 28.912v15.059h2.425V28.912h9.905c3.701.828 6.664 3.104 8.89 6.826v22.435c-1.103 4.831-3.73 7.263-7.882 7.296v16.449H8.445v-16.6C2.815 64.563 0 61.996 0 57.615V35.738c2.589-4.55 5.743-6.826 9.462-6.826h8.727zm0 17.468v2.41h2.425v-2.41h-2.425z"/>
        </g>
        <ellipse cx="107.5" cy="107.762" stroke="#FFF" stroke-width="10.752" rx="102.124" ry="102.386"/>
        <g fill="#FFF" transform="translate(86.494 25.78)">
            <ellipse cx="19.152" cy="12.89" rx="11.739" ry="12.89"/>
            <path d="M13.83 28.234h11.143l-5.572 9.65-5.571-9.65zm-2.8 0l7.159 12.4v7.53h2.425v-7.53l7.159-12.4h2.848c3.714.825 6.687 3.091 8.92 6.798v22.342c-1.107 4.812-3.743 7.233-7.909 7.266v16.38H8.472V64.49C2.825 63.738 0 61.18 0 56.819V35.032c2.598-4.532 5.762-6.798 9.493-6.798h1.536z"/>
        </g>
    </g>
</svg>
