<?xml version="1.0" encoding="utf-8"?>
<!-- Generator: Adobe Illustrator 24.1.0, SVG Export Plug-In . SVG Version: 6.00 Build 0)  -->
<svg version="1.1" id="Layer_1" xmlns="http://www.w3.org/2000/svg" xmlns:xlink="http://www.w3.org/1999/xlink" x="0px" y="0px"
	 viewBox="0 0 112 112" style="enable-background:new 0 0 112 112;" xml:space="preserve">
<style type="text/css">
	.st0{fill-rule:evenodd;clip-rule:evenodd;fill:#2C7CF5;}
	.st1{fill-rule:evenodd;clip-rule:evenodd;fill:#FAFAFA;}
	.st2{fill:none;stroke:#2C7CF5;stroke-width:5.6;}
</style>
<g>
	<g transform="translate(21.885 46.569)">
		<ellipse class="st0" cx="9.9" cy="6.6" rx="6.1" ry="6.6"/>
		<path class="st0" d="M4.4,33.7C1.5,33.3,0,32,0,29.7V18.2c1.3-2.4,3-3.6,4.9-3.6h11c1.9,0.4,3.5,1.6,4.6,3.6V30
			c-0.6,2.5-1.9,3.8-4.1,3.8v8.6h-12C4.4,42.4,4.4,33.7,4.4,33.7z"/>
		<path class="st1" d="M9.7,17.2H11v1.3H9.7V17.2z M9.7,20.4H11v1.3H9.7V20.4z M9.7,23.6H11v1.3H9.7V23.6z"/>
	</g>
	<g transform="translate(67.586 46.569)">
		<ellipse class="st0" cx="9.8" cy="6.6" rx="6" ry="6.6"/>
		<path class="st0" d="M4.4,33.9c-2.9-0.4-4.4-1.7-4.4-4V18.6C1.3,16.2,3,15,4.9,15h11c1.9,0.4,3.5,1.6,4.6,3.5v11.7
			C20,32.7,18.6,34,16.4,34v8.5h-12C4.4,42.5,4.4,33.9,4.4,33.9z"/>
	</g>
	<path class="st1" d="M77.1,61.6h1.3v7.8h-1.3V61.6z M77.1,70.7h1.3V72h-1.3V70.7z"/>
	<circle class="st2" cx="56" cy="56" r="53.2"/>
	<g>
		<g transform="translate(45.057 13.397)">
			<ellipse class="st0" cx="10" cy="6.7" rx="6.1" ry="6.7"/>
			<path class="st0" d="M4.4,33.5c-2.9-0.4-4.4-1.7-4.4-4V18.2c1.4-2.4,3-3.5,4.9-3.5h11c1.9,0.4,3.5,1.6,4.6,3.5v11.6
				c-0.6,2.5-2,3.8-4.1,3.8v8.5h-12V33.5z"/>
		</g>
		<path class="st1" d="M54.5,34h1.3v4.4h-1.3V34z"/>
		<path class="st1" d="M58.5,27.4l1.1,0.6l-3.9,6.8l-1.1-0.6L58.5,27.4z"/>
		<path class="st1" d="M51.9,27.4L50.8,28l3.9,6.8l1.1-0.6L51.9,27.4z"/>
	</g>
</g>
</svg>
