<svg xmlns="http://www.w3.org/2000/svg" width="215" height="215" viewBox="0 0 215 215">
    <g fill="none" fill-rule="evenodd" opacity=".4">
        <g fill="#FFF" transform="translate(96.75 82.929)">
            <ellipse cx="11.113" cy="7.603" rx="6.794" ry="7.603"/>
            <path d="M4.92 38.737C1.64 38.284 0 36.742 0 34.111V20.97c1.508-2.734 3.346-4.101 5.512-4.101H17.78c2.156.497 3.883 1.864 5.179 4.1v13.476c-.643 2.902-2.173 4.362-4.592 4.382v9.88H4.92v-9.97zm5.878-18.933v1.44h1.413v-1.44h-1.413zm0 3.667v1.44h1.413v-1.44h-1.413zm0 3.668v1.44h1.413v-1.44h-1.413z"/>
        </g>
        <g fill="#FFF" transform="translate(61.429 82.929)">
            <ellipse cx="11.113" cy="7.603" rx="6.794" ry="7.603"/>
            <path d="M4.92 38.737C1.64 38.284 0 36.742 0 34.111V20.97c1.508-2.734 3.346-4.101 5.512-4.101H17.78c2.156.497 3.883 1.864 5.179 4.1v13.476c-.643 2.902-2.173 4.362-4.592 4.382v9.88H4.92v-9.97zm5.878-18.933v1.44h1.413v-1.44h-1.413zm0 3.667v1.44h1.413v-1.44h-1.413zm0 3.668v1.44h1.413v-1.44h-1.413z"/>
        </g>
        <g fill="#FFF" transform="translate(132.071 82.929)">
            <ellipse cx="11.113" cy="7.603" rx="6.794" ry="7.603"/>
            <path d="M4.92 38.737C1.64 38.284 0 36.742 0 34.111V20.97c1.508-2.734 3.346-4.101 5.512-4.101H17.78c2.156.497 3.883 1.864 5.179 4.1v13.476c-.643 2.902-2.173 4.362-4.592 4.382v9.88H4.92v-9.97zm5.878-18.933v1.44h1.413v-1.44h-1.413zm0 3.667v1.44h1.413v-1.44h-1.413zm0 3.668v1.44h1.413v-1.44h-1.413z"/>
        </g>
        <g fill="#FFF" transform="translate(96.75 141.286)">
            <ellipse cx="10.95" cy="7.558" rx="6.711" ry="7.558"/>
            <path d="M10.596 17.275v8.997h1.413v-8.997h5.771c2.156.495 3.883 1.854 5.179 4.078v13.405c-.643 2.887-2.173 4.34-4.592 4.36v9.827H4.92v-9.918C1.64 38.577 0 37.042 0 34.425V21.353c1.508-2.719 3.346-4.078 5.512-4.078h5.084zm0 10.437v1.44h1.413v-1.44h-1.413z"/>
        </g>
        <g fill="#FFF" transform="translate(61.429 141.286)">
            <ellipse cx="10.95" cy="7.558" rx="6.711" ry="7.558"/>
            <path d="M10.596 17.275v8.997h1.413v-8.997h5.771c2.156.495 3.883 1.854 5.179 4.078v13.405c-.643 2.887-2.173 4.34-4.592 4.36v9.827H4.92v-9.918C1.64 38.577 0 37.042 0 34.425V21.353c1.508-2.719 3.346-4.078 5.512-4.078h5.084zm0 10.437v1.44h1.413v-1.44h-1.413z"/>
        </g>
        <g fill="#FFF" transform="translate(132.071 141.286)">
            <ellipse cx="10.95" cy="7.558" rx="6.711" ry="7.558"/>
            <path d="M10.596 17.275v8.997h1.413v-8.997h5.771c2.156.495 3.883 1.854 5.179 4.078v13.405c-.643 2.887-2.173 4.34-4.592 4.36v9.827H4.92v-9.918C1.64 38.577 0 37.042 0 34.425V21.353c1.508-2.719 3.346-4.078 5.512-4.078h5.084zm0 10.437v1.44h1.413v-1.44h-1.413z"/>
        </g>
        <g fill="#FFF" transform="translate(96.75 24.571)">
            <ellipse cx="11.158" cy="7.818" rx="6.839" ry="7.818"/>
            <path d="M7.977 17.126h6.652l-3.326 5.76-3.326-5.76zm-1.631 0l4.25 7.362v4.726h1.413v-4.726l4.251-7.362h1.58c2.163.5 3.895 1.874 5.196 4.123V34.8c-.645 2.918-2.18 4.387-4.607 4.407v9.936H4.936V39.116C1.646 38.66 0 37.11 0 34.463V21.25c1.513-2.75 3.357-4.123 5.53-4.123h.816z"/>
        </g>
        <g fill="#FFF" transform="translate(61.429 24.571)">
            <ellipse cx="11.158" cy="7.818" rx="6.839" ry="7.818"/>
            <path d="M7.977 17.126h6.652l-3.326 5.76-3.326-5.76zm-1.631 0l4.25 7.362v4.726h1.413v-4.726l4.251-7.362h1.58c2.163.5 3.895 1.874 5.196 4.123V34.8c-.645 2.918-2.18 4.387-4.607 4.407v9.936H4.936V39.116C1.646 38.66 0 37.11 0 34.463V21.25c1.513-2.75 3.357-4.123 5.53-4.123h.816z"/>
        </g>
        <path stroke="#FFF" stroke-dasharray="5.772" stroke-linecap="square" stroke-width="1.536" d="M46.071 78.321H168.93M46.071 136.679H168.93"/>
        <g fill="#FFF" transform="translate(132.071 24.571)">
            <ellipse cx="11.158" cy="7.818" rx="6.839" ry="7.818"/>
            <path d="M7.977 17.126h6.652l-3.326 5.76-3.326-5.76zm-1.631 0l4.25 7.362v4.726h1.413v-4.726l4.251-7.362h1.58c2.163.5 3.895 1.874 5.196 4.123V34.8c-.645 2.918-2.18 4.387-4.607 4.407v9.936H4.936V39.116C1.646 38.66 0 37.11 0 34.463V21.25c1.513-2.75 3.357-4.123 5.53-4.123h.816z"/>
        </g>
        <circle cx="107.5" cy="107.5" r="102.125" stroke="#FFF" stroke-width="10.75"/>
    </g>
</svg>
